<svg id="visual" viewBox="0 0 1920 1080" width="1920" height="1080" xmlns="http://www.w3.org/2000/svg" xmlns:xlink="http://www.w3.org/1999/xlink" version="1.1"><path d="M0 449L45.7 451.8C91.3 454.7 182.7 460.3 274.2 479.7C365.7 499 457.3 532 548.8 530.7C640.3 529.3 731.7 493.7 823 496.7C914.3 499.7 1005.7 541.3 1097 552.3C1188.3 563.3 1279.7 543.7 1371.2 539.8C1462.7 536 1554.3 548 1645.8 543C1737.3 538 1828.7 516 1874.3 505L1920 494L1920 0L1874.3 0C1828.7 0 1737.3 0 1645.8 0C1554.3 0 1462.7 0 1371.2 0C1279.7 0 1188.3 0 1097 0C1005.7 0 914.3 0 823 0C731.7 0 640.3 0 548.8 0C457.3 0 365.7 0 274.2 0C182.7 0 91.3 0 45.7 0L0 0Z" fill="#ffe135"></path><path d="M0 414L45.7 417C91.3 420 182.7 426 274.2 434C365.7 442 457.3 452 548.8 460.7C640.3 469.3 731.7 476.7 823 461.2C914.3 445.7 1005.7 407.3 1097 399C1188.3 390.7 1279.7 412.3 1371.2 412C1462.7 411.7 1554.3 389.3 1645.8 392.3C1737.3 395.3 1828.7 423.7 1874.3 437.8L1920 452L1920 0L1874.3 0C1828.7 0 1737.3 0 1645.8 0C1554.3 0 1462.7 0 1371.2 0C1279.7 0 1188.3 0 1097 0C1005.7 0 914.3 0 823 0C731.7 0 640.3 0 548.8 0C457.3 0 365.7 0 274.2 0C182.7 0 91.3 0 45.7 0L0 0Z" fill="#ffdb2c"></path><path d="M0 307L45.7 314.2C91.3 321.3 182.7 335.7 274.2 347C365.7 358.3 457.3 366.7 548.8 364.2C640.3 361.7 731.7 348.3 823 347.7C914.3 347 1005.7 359 1097 347C1188.3 335 1279.7 299 1371.2 293.3C1462.7 287.7 1554.3 312.3 1645.8 324.5C1737.3 336.7 1828.7 336.3 1874.3 336.2L1920 336L1920 0L1874.3 0C1828.7 0 1737.3 0 1645.8 0C1554.3 0 1462.7 0 1371.2 0C1279.7 0 1188.3 0 1097 0C1005.7 0 914.3 0 823 0C731.7 0 640.3 0 548.8 0C457.3 0 365.7 0 274.2 0C182.7 0 91.3 0 45.7 0L0 0Z" fill="#ffd521"></path><path d="M0 208L45.7 210.8C91.3 213.7 182.7 219.3 274.2 225C365.7 230.7 457.3 236.3 548.8 246.3C640.3 256.3 731.7 270.7 823 271.5C914.3 272.3 1005.7 259.7 1097 244.2C1188.3 228.7 1279.7 210.3 1371.2 204.5C1462.7 198.7 1554.3 205.3 1645.8 213.3C1737.3 221.3 1828.7 230.7 1874.3 235.3L1920 240L1920 0L1874.3 0C1828.7 0 1737.3 0 1645.8 0C1554.3 0 1462.7 0 1371.2 0C1279.7 0 1188.3 0 1097 0C1005.7 0 914.3 0 823 0C731.7 0 640.3 0 548.8 0C457.3 0 365.7 0 274.2 0C182.7 0 91.3 0 45.7 0L0 0Z" fill="#ffcf14"></path><path d="M0 165L45.7 164.2C91.3 163.3 182.7 161.7 274.2 160.7C365.7 159.7 457.3 159.3 548.8 154C640.3 148.7 731.7 138.3 823 132.7C914.3 127 1005.7 126 1097 124.5C1188.3 123 1279.7 121 1371.2 112.8C1462.7 104.7 1554.3 90.3 1645.8 96.2C1737.3 102 1828.7 128 1874.3 141L1920 154L1920 0L1874.3 0C1828.7 0 1737.3 0 1645.8 0C1554.3 0 1462.7 0 1371.2 0C1279.7 0 1188.3 0 1097 0C1005.7 0 914.3 0 823 0C731.7 0 640.3 0 548.8 0C457.3 0 365.7 0 274.2 0C182.7 0 91.3 0 45.7 0L0 0Z" fill="#ffc800"></path></svg>