{
    "asset": {
        "version": "2.0",
        "generator": "Open Asset Import Library (assimp v5.2.cf7d3637)"
    },
    "extensionsUsed": [
        "KHR_materials_volume",
        "KHR_materials_ior",
        "FB_ngon_encoding"
    ],
    "accessors": [
        {
            "bufferView": 0,
            "byteOffset": 0,
            "componentType": 5126,
            "count": 12528,
            "type": "VEC3",
            "max": [
                10.250283241271973,
                4.374344825744629,
                1.2080999612808228
            ],
            "min": [
                -0.3189449906349182,
                -1.0251049995422364,
                -1.2080999612808228
            ]
        },
        {
            "bufferView": 1,
            "byteOffset": 0,
            "componentType": 5126,
            "count": 12528,
            "type": "VEC2",
            "max": [
                1.0,
                1.0
            ],
            "min": [
                0.0,
                0.0
            ]
        },
        {
            "bufferView": 2,
            "byteOffset": 0,
            "componentType": 5125,
            "count": 12528,
            "type": "SCALAR",
            "max": [
                12527
            ],
            "min": [
                0
            ]
        }
    ],
    "buffers": [
        {
            "byteLength": 300672,
            "uri": "result.bin"
        }
    ],
    "bufferViews": [
        {
            "buffer": 0,
            "byteOffset": 0,
            "byteLength": 150336,
            "target": 34962
        },
        {
            "buffer": 0,
            "byteOffset": 150336,
            "byteLength": 100224,
            "target": 34962
        },
        {
            "buffer": 0,
            "byteOffset": 250560,
            "byteLength": 50112,
            "target": 34963
        }
    ],
    "materials": [
        {
            "name": "DefaultMaterial",
            "pbrMetallicRoughness": {
                "baseColorFactor": [
                    0.6000000238418579,
                    0.6000000238418579,
                    0.6000000238418579,
                    1.0
                ],
                "metallicFactor": 0.0
            },
            "extensions": {
                "KHR_materials_ior": {
                    "ior": 1.0
                }
            }
        },
        {
            "name": "banana",
            "pbrMetallicRoughness": {
                "baseColorFactor": [
                    0.6000000238418579,
                    0.6000000238418579,
                    0.6000000238418579,
                    1.0
                ],
                "metallicFactor": 0.0
            },
            "extensions": {
                "KHR_materials_ior": {
                    "ior": 1.0
                }
            }
        }
    ],
    "meshes": [
        {
            "name": "banana banana1",
            "primitives": [
                {
                    "extensions": {
                        "FB_ngon_encoding": {}
                    },
                    "mode": 4,
                    "material": 1,
                    "indices": 2,
                    "attributes": {
                        "POSITION": 0,
                        "TEXCOORD_0": 1
                    }
                }
            ]
        }
    ],
    "nodes": [
        {
            "name": "banana.obj",
            "children": [
                1
            ]
        },
        {
            "name": "banana banana1",
            "mesh": 0
        }
    ],
    "scenes": [
        {
            "nodes": [
                0
            ]
        }
    ],
    "scene": 0
}